# xmcd
# 
# Track frame offsets:
#     150
#     20163
#     41570
#     62235
#     84048
#     104640
#     124774
#     146589
#     167889
#     188494
# 
# Disc length: 2792
# 
# Revision: 2
# Processed by: cddbd v1.5.2PL0 Copyright (c) Steve Scherf et al.
# Submitted via: BonkEnc v1.0.8
# 
DISCID=860ae60a
DTITLE=許景淳 - 芬芳
DYEAR=1996
DGENRE=Mandarin Pop
TTITLE0=幻想
TTITLE1=人好假
TTITLE2=誰把誰忘記
TTITLE3=妥協
TTITLE4=芬芳
TTITLE5=花戒指
TTITLE6=難為了情
TTITLE7=晴
TTITLE8=誰規定
TTITLE9=追尋我的腳步
EXTD=
EXTT0=
EXTT1=
EXTT2=
EXTT3=
EXTT4=
EXTT5=
EXTT6=
EXTT7=
EXTT8=
EXTT9=
PLAYORDER=
